<svg version="1.1" id="Layer_1" xmlns="http://www.w3.org/2000/svg" xmlns:xlink="http://www.w3.org/1999/xlink" x="0px" y="0px"
	 width="100%" viewBox="0 0 512 512" enable-background="new 0 0 512 512" xml:space="preserve">
<path fill="#000000" opacity="1.000000" stroke="none" 
	d="
M401.904144,367.906860 
	C415.858124,368.900085 429.083527,366.675781 441.694977,358.734070 
	C451.244568,353.312866 458.947540,345.832855 465.003967,336.795929 
	C476.260468,319.999725 479.427765,301.379425 475.643494,281.738434 
	C472.816010,267.063232 465.613831,254.293289 454.558838,244.337799 
	C443.205261,234.113434 429.895752,227.641190 414.275757,225.764435 
	C392.521393,223.150650 373.486816,229.010147 357.407166,243.292191 
	C329.302032,268.255280 326.268951,309.938263 347.291595,339.287567 
	C350.472992,343.729065 355.058899,347.164520 359.326538,351.665588 
	C362.281403,353.764618 365.236237,355.863678 368.452545,358.590149 
	C377.949829,363.966156 387.871948,367.928467 399.674652,367.858978 
	C400.106262,367.832489 400.537872,367.806000 401.904144,367.906860 
M196.333618,173.613464 
	C218.298813,182.957733 240.064392,182.977539 261.384644,171.776215 
	C290.166779,156.654526 304.189728,123.493958 297.151123,93.271698 
	C293.400360,77.166756 285.543793,63.686943 272.607117,53.038647 
	C256.680847,39.929607 238.305206,35.071232 218.354340,37.340061 
	C200.743439,39.342785 185.683228,47.283649 173.668869,60.832676 
	C157.837753,78.685966 152.836243,99.333023 156.764297,122.448952 
	C159.038971,135.834976 165.172714,147.391769 174.687286,157.959854 
	C181.047134,163.983994 187.368973,170.061615 196.333618,173.613464 
M356.103424,181.712265 
	C357.712769,182.810272 359.322144,183.908279 361.088806,185.691864 
	C362.476074,186.803589 363.716187,188.213898 365.273224,188.981079 
	C381.767670,197.108322 399.071777,199.323212 416.818695,194.477081 
	C453.463104,184.470596 476.246460,148.664169 468.664795,110.986473 
	C461.656097,76.156303 432.748383,53.222618 397.729706,53.213818 
	C381.387482,53.209709 366.400970,58.542850 353.332794,69.091446 
	C335.331970,83.621696 326.614899,102.641426 326.522278,125.215591 
	C326.435669,146.322464 334.589783,164.505539 350.466431,178.804245 
	C351.851562,180.051743 354.113678,180.325500 356.103424,181.712265 
M160.993713,225.506287 
	C156.869888,221.382370 152.754150,217.250305 148.620209,213.136566 
	C143.443863,207.985550 142.539474,207.977676 137.353622,213.160248 
	C114.725151,235.774567 92.041031,258.333954 69.540199,281.074646 
	C65.018250,285.644806 60.740482,290.602753 57.145973,295.919891 
	C38.471733,323.543732 32.526508,354.063629 39.486553,386.441467 
	C47.186344,422.260559 68.373756,448.620148 100.859703,465.217712 
	C124.457016,477.273865 149.812134,479.980347 175.803726,474.814240 
	C196.016541,470.796722 214.398300,462.272797 229.246399,448.001343 
	C253.627823,424.566772 277.207428,400.297821 301.113190,376.368774 
	C305.946838,371.530487 305.922729,370.449921 300.942413,365.462006 
	C289.051727,353.553101 277.145111,341.660126 265.242096,329.763550 
	C259.307556,323.832245 258.702057,323.822052 252.914139,329.607178 
	C230.994476,351.516449 208.925201,373.278839 187.207428,395.386444 
	C168.115250,414.821259 136.569824,414.856140 117.751060,395.403229 
	C99.557396,376.596466 99.239204,346.277466 117.733246,327.766968 
	C140.226822,305.253418 162.742691,282.762146 185.232666,260.244995 
	C189.915359,255.556656 189.897644,254.439560 185.171097,249.692444 
	C177.294357,241.781387 169.387344,233.900513 160.993713,225.506287 
M268.002045,216.501678 
	C270.706665,213.789856 273.398743,211.065384 276.119537,208.369919 
	C278.645203,205.867783 279.037140,202.878311 276.669464,200.438736 
	C274.299286,197.996597 271.275909,198.261948 268.747864,200.782547 
	C262.379974,207.131668 256.040253,213.509064 249.660934,219.846664 
	C246.923813,222.565887 247.413559,225.950134 249.812683,227.679367 
	C251.373749,228.804550 255.355606,228.349915 257.115479,227.056000 
	C260.962280,224.227737 264.084045,220.413330 268.002045,216.501678 
M285.012726,260.674896 
	C286.081177,262.309296 286.873169,264.934937 288.287445,265.329407 
	C290.090057,265.832153 292.994080,265.178345 294.382172,263.896057 
	C300.733215,258.029205 306.689270,251.736816 312.852448,245.663483 
	C315.518127,243.036682 316.202881,239.971176 313.589996,237.376816 
	C310.971710,234.777039 307.911591,235.525497 305.299744,238.177109 
	C299.227783,244.341568 293.051514,250.403427 286.994690,256.582489 
	C286.123444,257.471313 285.679382,258.778900 285.012726,260.674896 
M225.986542,219.331253 
	C224.922180,217.698349 224.034241,214.891144 222.753448,214.698700 
	C220.659210,214.384033 217.722061,215.131393 216.170090,216.554001 
	C209.930801,222.273163 204.106262,228.443192 198.087509,234.405273 
	C195.439178,237.028656 194.799225,240.108887 197.452438,242.676178 
	C200.110855,245.248520 203.149963,244.415085 205.736481,241.792923 
	C211.685730,235.761719 217.739243,229.833099 223.665237,223.779449 
	C224.650909,222.772583 225.206970,221.345139 225.986542,219.331253 
M257.011505,264.492157 
	C258.302429,263.199921 259.529816,261.835571 260.897644,260.630615 
	C263.674011,258.184814 263.877747,255.200119 261.578857,252.757080 
	C259.092743,250.115051 256.102936,250.286880 253.349335,253.113358 
	C247.440094,259.179016 241.435257,265.153595 235.382812,271.076813 
	C232.597214,273.802948 231.626389,276.930450 234.503189,279.711639 
	C237.151657,282.272064 240.212723,281.378967 242.783173,278.745605 
	C247.306580,274.111420 251.928772,269.573669 257.011505,264.492157 
M274.977203,305.522247 
	C273.807343,306.696777 271.960083,307.703003 271.617310,309.082977 
	C271.017731,311.496887 271.342285,314.140320 271.279602,316.687592 
	C273.825836,316.647705 277.310669,317.667908 278.757721,316.386658 
	C285.447662,310.463165 291.633118,303.959961 297.864563,297.533844 
	C300.125732,295.202026 301.144531,292.147491 298.478149,289.604309 
	C295.833801,287.082092 292.916901,287.408783 290.223236,290.215881 
	C285.403107,295.238983 280.404755,300.091034 274.977203,305.522247 
z"/>
<path fill="#4E4E4F" opacity="1.000000" stroke="none" 
	d="
M161.243393,225.756607 
	C169.387344,233.900513 177.294357,241.781387 185.171097,249.692444 
	C189.897644,254.439560 189.915359,255.556656 185.232666,260.244995 
	C162.742691,282.762146 140.226822,305.253418 117.733246,327.766968 
	C99.239204,346.277466 99.557396,376.596466 117.751060,395.403229 
	C136.569824,414.856140 168.115250,414.821259 187.207428,395.386444 
	C208.925201,373.278839 230.994476,351.516449 252.914139,329.607178 
	C258.702057,323.822052 259.307556,323.832245 265.242096,329.763550 
	C277.145111,341.660126 289.051727,353.553101 300.942413,365.462006 
	C305.922729,370.449921 305.946838,371.530487 301.113190,376.368774 
	C277.207428,400.297821 253.627823,424.566772 229.246399,448.001343 
	C214.398300,462.272797 196.016541,470.796722 175.803726,474.814240 
	C149.812134,479.980347 124.457016,477.273865 100.859703,465.217712 
	C68.373756,448.620148 47.186344,422.260559 39.486553,386.441467 
	C32.526508,354.063629 38.471733,323.543732 57.145973,295.919891 
	C60.740482,290.602753 65.018250,285.644806 69.540199,281.074646 
	C92.041031,258.333954 114.725151,235.774567 137.353622,213.160248 
	C142.539474,207.977676 143.443863,207.985550 148.620209,213.136566 
	C152.754150,217.250305 156.869888,221.382370 161.243393,225.756607 
M148.852570,470.615723 
	C175.039291,471.107941 199.288666,464.390228 219.269119,447.422577 
	C236.601105,432.703979 252.214157,415.961212 268.230530,400.458008 
	C255.265732,387.351135 242.802948,374.751770 229.308716,361.109680 
	C216.694046,374.188965 204.100876,387.489594 191.232040,400.517944 
	C179.168304,412.731171 164.332275,417.989044 147.287506,416.221252 
	C124.210838,413.827911 108.175743,401.471130 100.602692,379.743134 
	C93.121185,358.277771 97.894829,338.766937 113.866844,322.363678 
	C123.163261,312.816254 132.719604,303.522156 142.139832,294.094910 
	C145.608612,290.623535 149.022400,287.097198 152.264023,283.796753 
	C139.391235,270.852631 126.965019,258.357544 114.318977,245.641418 
	C113.137802,246.765366 111.929657,247.866165 110.775406,249.020813 
	C99.234863,260.565613 87.688004,272.104156 76.172157,283.673553 
	C52.398979,307.557343 41.257393,336.337341 43.919949,369.944519 
	C46.851570,406.947937 64.679977,435.246735 96.036469,454.916046 
	C111.842148,464.830688 129.349365,469.613464 148.852570,470.615723 
z"/>
<path fill="#515050" opacity="1.000000" stroke="none" 
	d="
M355.968445,181.051559 
	C354.113678,180.325500 351.851562,180.051743 350.466431,178.804245 
	C334.589783,164.505539 326.435669,146.322464 326.522278,125.215591 
	C326.614899,102.641426 335.331970,83.621696 353.332794,69.091446 
	C366.400970,58.542850 381.387482,53.209709 397.729706,53.213818 
	C432.748383,53.222618 461.656097,76.156303 468.664795,110.986473 
	C476.246460,148.664169 453.463104,184.470596 416.818695,194.477081 
	C399.071777,199.323212 381.767670,197.108322 365.273224,188.981079 
	C363.716187,188.213898 362.476074,186.803589 361.222809,185.212631 
	C361.600067,184.501846 361.843323,184.270294 362.459991,184.047455 
	C363.583008,184.008789 364.332581,183.961426 365.056458,183.952881 
	C365.030731,183.991714 365.051453,183.900970 365.238708,184.134491 
	C365.794983,184.504944 366.164062,184.641876 366.706390,184.788300 
	C366.879669,184.797775 367.158691,185.004196 367.306244,185.204300 
	C367.909698,185.534256 368.365570,185.664108 368.940247,185.809723 
	C369.059021,185.825516 369.208038,186.013199 369.243011,186.345642 
	C370.737732,187.681396 372.067261,189.158646 373.680878,189.601990 
	C379.228271,191.126144 384.812469,192.853210 390.495697,193.483093 
	C407.616302,195.380646 423.724579,192.447662 437.762573,181.741058 
	C439.023132,180.779678 439.645813,178.981949 440.597198,177.707352 
	C440.629700,177.842087 440.602417,177.566315 440.939331,177.601959 
	C441.821533,177.039948 442.366821,176.442276 442.928711,175.884644 
	C442.945312,175.924698 442.864075,175.955017 443.105469,175.837250 
	C443.545227,175.427567 443.743622,175.135681 443.928650,174.878754 
	C443.915344,174.913696 443.847137,174.882996 444.215912,174.905243 
	C445.357452,173.918594 446.130249,172.909714 446.946625,171.945404 
	C446.990234,171.989975 446.888672,171.917709 447.242310,171.816589 
	C448.056305,169.822495 448.516602,167.929520 449.213928,165.830139 
	C450.028381,165.393753 450.605835,165.163757 451.532837,164.939178 
	C452.362701,164.561646 452.981659,164.270096 453.302979,163.782425 
	C462.070190,150.477448 466.227081,136.031067 465.196655,119.943939 
	C462.589478,79.240143 422.291901,49.656792 382.718781,59.663544 
	C349.976166,67.943092 328.902802,96.542770 331.137695,130.305115 
	C331.981964,143.059555 336.537079,154.680450 344.304474,165.205200 
	C345.007416,164.219543 345.473877,163.565475 346.285645,162.931305 
	C347.092133,162.975296 347.553345,162.999405 348.001740,163.448608 
	C348.332489,166.218414 348.676056,168.563141 349.223206,171.100830 
	C349.632538,171.604248 349.838318,171.914703 350.081757,172.500092 
	C350.674225,173.207794 351.229004,173.640549 352.020874,174.181793 
	C352.486450,174.548187 352.714935,174.806107 353.043365,175.292084 
	C353.346710,175.806885 353.621735,175.979416 353.978760,176.021027 
	C353.989044,176.004303 353.955048,176.025635 354.020691,176.336273 
	C354.761597,177.035904 355.436859,177.424927 356.119446,177.829010 
	C356.126801,177.844086 356.132233,177.877167 356.073486,178.158478 
	C356.002258,178.630966 355.989746,178.822128 355.977814,179.353058 
	C355.975037,180.145737 355.971741,180.598648 355.968445,181.051559 
z"/>
<path fill="#515050" opacity="1.000000" stroke="none" 
	d="
M174.336716,157.367676 
	C165.172714,147.391769 159.038971,135.834976 156.764297,122.448952 
	C152.836243,99.333023 157.837753,78.685966 173.668869,60.832676 
	C185.683228,47.283649 200.743439,39.342785 218.354340,37.340061 
	C238.305206,35.071232 256.680847,39.929607 272.607117,53.038647 
	C285.543793,63.686943 293.400360,77.166756 297.151123,93.271698 
	C304.189728,123.493958 290.166779,156.654526 261.384644,171.776215 
	C240.064392,182.977539 218.298813,182.957733 196.404083,173.308899 
	C196.667923,172.992691 196.861313,172.981079 197.460831,172.971451 
	C199.973083,173.390060 202.161774,173.567001 204.172668,174.259949 
	C227.524841,182.306931 249.022766,177.888260 268.856323,164.182816 
	C272.560333,161.623260 276.221588,157.568573 277.556152,153.444550 
	C278.727295,149.825455 276.625610,145.138321 275.931976,140.929123 
	C275.652802,139.235199 275.273560,137.557755 275.240326,136.069244 
	C277.294403,140.291504 279.048004,144.317337 280.832367,148.413834 
	C299.367310,126.260933 300.525269,85.018883 273.198578,59.733360 
	C245.138504,33.769249 202.803986,35.532169 177.165131,63.687393 
	C152.953278,90.275558 156.569183,129.032425 173.514389,148.364197 
	C174.935272,145.146820 176.394913,141.841644 177.880203,138.945496 
	C177.293182,145.222839 176.680542,151.091141 175.632416,157.050171 
	C174.910202,157.216492 174.623459,157.292084 174.336716,157.367676 
z"/>
<path fill="#515151" opacity="1.000000" stroke="none" 
	d="
M358.995148,351.065338 
	C355.058899,347.164520 350.472992,343.729065 347.291595,339.287567 
	C326.268951,309.938263 329.302032,268.255280 357.407166,243.292191 
	C373.486816,229.010147 392.521393,223.150650 414.275757,225.764435 
	C429.895752,227.641190 443.205261,234.113434 454.558838,244.337799 
	C465.613831,254.293289 472.816010,267.063232 475.643494,281.738434 
	C479.427765,301.379425 476.260468,319.999725 465.003967,336.795929 
	C458.947540,345.832855 451.244568,353.312866 441.092102,358.815155 
	C439.978424,358.577515 439.467560,358.258789 439.152954,357.665649 
	C443.484711,354.423401 447.607635,351.437836 451.759247,348.492706 
	C456.096008,345.416138 458.071320,341.619049 456.363586,336.159943 
	C455.543335,333.537811 455.536316,330.661316 455.457062,328.100159 
	C456.810638,331.164459 457.868164,334.028534 459.040588,337.203857 
	C467.766296,325.518280 472.471710,311.742432 472.590271,297.774048 
	C472.940765,256.467743 438.125946,228.355774 404.284668,229.759460 
	C377.409393,230.874207 357.490967,243.170944 345.404083,266.725311 
	C333.429077,290.061646 335.960602,313.263214 350.088684,335.223541 
	C350.418213,335.735779 351.601624,335.698669 352.670837,336.092133 
	C353.427368,341.407715 355.396454,345.799530 359.302185,349.289185 
	C359.539459,349.501129 359.112854,350.456085 358.995148,351.065338 
z"/>
<path fill="#5F5533" opacity="1.000000" stroke="none" 
	d="
M359.160828,351.365479 
	C359.112854,350.456085 359.539459,349.501129 359.302185,349.289185 
	C355.396454,345.799530 353.427368,341.407715 352.733459,335.753296 
	C357.040894,317.955200 370.217041,310.431335 386.178070,306.140808 
	C371.806793,285.832214 371.470184,271.193848 384.787048,258.922302 
	C396.159546,248.442535 413.064026,248.215744 425.224426,258.379852 
	C436.523254,267.823822 439.093872,284.628510 430.805878,297.104919 
	C429.988403,298.135315 429.498932,299.071716 429.004700,300.004089 
	C429.000000,300.000000 429.010498,300.005707 428.806671,300.142395 
	C428.348785,300.495148 428.153015,300.755066 428.009827,301.030273 
	C428.004120,301.001678 428.052826,301.033783 427.702942,301.092407 
	C426.604462,302.228271 425.855835,303.305481 425.049194,304.568909 
	C424.991180,304.755127 424.640594,304.926117 424.314453,304.974243 
	C423.811127,305.917725 423.405304,307.574280 423.489471,307.599548 
	C428.664124,309.153839 433.878876,310.574585 439.440674,312.052002 
	C444.551514,316.623260 449.311646,321.150146 454.110413,326.008575 
	C454.492676,326.895355 454.836243,327.450562 455.147308,327.984283 
	C455.114777,327.962769 455.161011,327.899994 455.161011,327.899994 
	C455.536316,330.661316 455.543335,333.537811 456.363586,336.159943 
	C458.071320,341.619049 456.096008,345.416138 451.759247,348.492706 
	C447.607635,351.437836 443.484711,354.423401 438.798553,357.751343 
	C427.452850,362.324036 416.714386,366.706818 404.742096,366.108307 
	C403.515472,366.047028 402.228455,367.193512 400.969482,367.779541 
	C400.537872,367.806000 400.106262,367.832489 399.191101,367.509064 
	C393.249817,365.429199 387.808960,363.643280 382.329102,361.986328 
	C377.639648,360.568390 372.905457,359.298248 368.191071,357.962738 
	C365.236237,355.863678 362.281403,353.764618 359.160828,351.365479 
M424.581696,298.922150 
	C424.723358,298.589569 424.865021,298.256989 425.552460,297.517761 
	C426.771301,295.997437 428.326324,294.640564 429.157379,292.931671 
	C438.309662,274.111115 423.307922,253.459686 403.662506,254.888489 
	C392.811798,255.677658 382.663300,263.430573 379.758850,274.378143 
	C376.793182,285.556213 381.509094,298.182434 390.858582,303.636688 
	C391.942535,304.269012 393.554871,303.995697 395.009186,304.895142 
	C399.584625,309.551819 411.788483,309.084686 418.470215,303.692627 
	C418.643463,303.471985 418.809906,303.246368 419.694916,303.065125 
	C421.172882,301.741730 422.650848,300.418365 424.078339,299.047241 
	C424.078339,299.047241 424.048248,299.109863 424.581696,298.922150 
M391.479218,309.177155 
	C384.778961,311.544434 377.728973,313.230499 371.464600,316.446716 
	C363.125732,320.727997 357.371643,327.755371 356.531006,337.511902 
	C356.309479,340.082489 357.432709,343.585785 359.220825,345.389404 
	C383.890442,370.272858 427.714111,370.033447 452.053955,345.001373 
	C453.295166,343.724884 454.461884,341.390198 454.182495,339.809998 
	C453.415466,335.472198 452.705200,330.750458 450.457764,327.117767 
	C443.445801,315.783844 431.804718,311.733124 419.479034,309.225647 
	C418.720703,309.071350 417.792938,309.280670 417.051636,309.583893 
	C408.731781,312.986938 400.491516,312.480042 391.479218,309.177155 
z"/>
<path fill="#4D4D4D" opacity="1.000000" stroke="none" 
	d="
M267.752014,216.751724 
	C264.084045,220.413330 260.962280,224.227737 257.115479,227.056000 
	C255.355606,228.349915 251.373749,228.804550 249.812683,227.679367 
	C247.413559,225.950134 246.923813,222.565887 249.660934,219.846664 
	C256.040253,213.509064 262.379974,207.131668 268.747864,200.782547 
	C271.275909,198.261948 274.299286,197.996597 276.669464,200.438736 
	C279.037140,202.878311 278.645203,205.867783 276.119537,208.369919 
	C273.398743,211.065384 270.706665,213.789856 267.752014,216.751724 
z"/>
<path fill="#4D4D4E" opacity="1.000000" stroke="none" 
	d="
M285.025208,260.283783 
	C285.679382,258.778900 286.123444,257.471313 286.994690,256.582489 
	C293.051514,250.403427 299.227783,244.341568 305.299744,238.177109 
	C307.911591,235.525497 310.971710,234.777039 313.589996,237.376816 
	C316.202881,239.971176 315.518127,243.036682 312.852448,245.663483 
	C306.689270,251.736816 300.733215,258.029205 294.382172,263.896057 
	C292.994080,265.178345 290.090057,265.832153 288.287445,265.329407 
	C286.873169,264.934937 286.081177,262.309296 285.025208,260.283783 
z"/>
<path fill="#4D4D4D" opacity="1.000000" stroke="none" 
	d="
M225.974045,219.721649 
	C225.206970,221.345139 224.650909,222.772583 223.665237,223.779449 
	C217.739243,229.833099 211.685730,235.761719 205.736481,241.792923 
	C203.149963,244.415085 200.110855,245.248520 197.452438,242.676178 
	C194.799225,240.108887 195.439178,237.028656 198.087509,234.405273 
	C204.106262,228.443192 209.930801,222.273163 216.170090,216.554001 
	C217.722061,215.131393 220.659210,214.384033 222.753448,214.698700 
	C224.034241,214.891144 224.922180,217.698349 225.974045,219.721649 
z"/>
<path fill="#4D4D4D" opacity="1.000000" stroke="none" 
	d="
M256.760559,264.743835 
	C251.928772,269.573669 247.306580,274.111420 242.783173,278.745605 
	C240.212723,281.378967 237.151657,282.272064 234.503189,279.711639 
	C231.626389,276.930450 232.597214,273.802948 235.382812,271.076813 
	C241.435257,265.153595 247.440094,259.179016 253.349335,253.113358 
	C256.102936,250.286880 259.092743,250.115051 261.578857,252.757080 
	C263.877747,255.200119 263.674011,258.184814 260.897644,260.630615 
	C259.529816,261.835571 258.302429,263.199921 256.760559,264.743835 
z"/>
<path fill="#4D4D4D" opacity="1.000000" stroke="none" 
	d="
M275.229065,305.268433 
	C280.404755,300.091034 285.403107,295.238983 290.223236,290.215881 
	C292.916901,287.408783 295.833801,287.082092 298.478149,289.604309 
	C301.144531,292.147491 300.125732,295.202026 297.864563,297.533844 
	C291.633118,303.959961 285.447662,310.463165 278.757721,316.386658 
	C277.310669,317.667908 273.825836,316.647705 271.279602,316.687592 
	C271.342285,314.140320 271.017731,311.496887 271.617310,309.082977 
	C271.960083,307.703003 273.807343,306.696777 275.229065,305.268433 
z"/>
<path fill="#4D4D4E" opacity="1.000000" stroke="none" 
	d="
M401.436829,367.843201 
	C402.228455,367.193512 403.515472,366.047028 404.742096,366.108307 
	C416.714386,366.706818 427.452850,362.324036 438.602325,358.025757 
	C439.467560,358.258789 439.978424,358.577515 440.785797,358.965637 
	C429.083527,366.675781 415.858124,368.900085 401.436829,367.843201 
z"/>
<path fill="#4E4E4F" opacity="1.000000" stroke="none" 
	d="
M368.321808,358.276428 
	C372.905457,359.298248 377.639648,360.568390 382.329102,361.986328 
	C387.808960,363.643280 393.249817,365.429199 398.868652,367.469055 
	C387.871948,367.928467 377.949829,363.966156 368.321808,358.276428 
z"/>
<path fill="#504C46" opacity="1.000000" stroke="none" 
	d="
M197.054688,172.969482 
	C196.861313,172.981079 196.667923,172.992691 196.184479,173.022339 
	C187.368973,170.061615 181.047134,163.983994 174.511993,157.663757 
	C174.623459,157.292084 174.910202,157.216492 175.962067,157.129868 
	C179.459000,158.776810 182.190811,160.434769 185.073349,162.270584 
	C185.435440,162.678589 185.669540,162.882706 186.130203,163.251190 
	C186.825867,163.696960 187.317657,163.952332 187.927414,164.524673 
	C191.048477,167.550934 194.051575,170.260208 197.054688,172.969482 
z"/>
<path fill="#5A5032" opacity="1.000000" stroke="none" 
	d="
M362.086578,184.038757 
	C361.843323,184.270294 361.600067,184.501846 361.144165,184.869843 
	C359.322144,183.908279 357.712769,182.810272 356.035950,181.381912 
	C355.971741,180.598648 355.975037,180.145737 356.310577,179.311203 
	C356.862518,178.889526 357.082245,178.849457 357.515442,178.855469 
	C357.728882,178.901550 358.067749,179.177002 358.208313,179.344788 
	C358.565491,179.717194 358.815094,179.866776 359.064117,179.967545 
	C359.030518,179.973770 359.031921,179.905457 359.183533,180.118134 
	C359.622253,180.524811 359.909393,180.718842 360.129639,180.912201 
	C360.062805,180.911545 360.068268,180.777954 360.246307,181.019714 
	C360.959259,181.496475 361.494202,181.731491 362.015167,181.983246 
	C362.001221,182.000000 362.032593,181.968689 362.025513,182.313599 
	C362.041138,183.118607 362.063873,183.578674 362.086578,184.038757 
z"/>
<path fill="#FEFEFE" opacity="1.000000" stroke="none" 
	d="
M148.393631,470.592773 
	C129.349365,469.613464 111.842148,464.830688 96.036469,454.916046 
	C64.679977,435.246735 46.851570,406.947937 43.919949,369.944519 
	C41.257393,336.337341 52.398979,307.557343 76.172157,283.673553 
	C87.688004,272.104156 99.234863,260.565613 110.775406,249.020813 
	C111.929657,247.866165 113.137802,246.765366 114.318977,245.641418 
	C126.965019,258.357544 139.391235,270.852631 152.264023,283.796753 
	C149.022400,287.097198 145.608612,290.623535 142.139832,294.094910 
	C132.719604,303.522156 123.163261,312.816254 113.866844,322.363678 
	C97.894829,338.766937 93.121185,358.277771 100.602692,379.743134 
	C108.175743,401.471130 124.210838,413.827911 147.287506,416.221252 
	C164.332275,417.989044 179.168304,412.731171 191.232040,400.517944 
	C204.100876,387.489594 216.694046,374.188965 229.308716,361.109680 
	C242.802948,374.751770 255.265732,387.351135 268.230530,400.458008 
	C252.214157,415.961212 236.601105,432.703979 219.269119,447.422577 
	C199.288666,464.390228 175.039291,471.107941 148.393631,470.592773 
z"/>
<path fill="#FDFDFD" opacity="1.000000" stroke="none" 
	d="
M345.940369,162.911407 
	C345.473877,163.565475 345.007416,164.219543 344.304474,165.205200 
	C336.537079,154.680450 331.981964,143.059555 331.137695,130.305115 
	C328.902802,96.542770 349.976166,67.943092 382.718781,59.663544 
	C422.291901,49.656792 462.589478,79.240143 465.196655,119.943939 
	C466.227081,136.031067 462.070190,150.477448 453.302979,163.782425 
	C452.981659,164.270096 452.362701,164.561646 451.505219,164.563263 
	C450.440002,162.308029 449.752014,160.434128 449.109100,158.436462 
	C449.154175,158.312714 448.955109,158.140228 448.956421,157.836334 
	C448.645569,157.301056 448.333405,157.069641 448.028076,156.898956 
	C448.034973,156.959656 448.156128,156.943817 448.122314,156.576965 
	C445.794373,153.072159 443.500244,149.934204 441.075012,146.485184 
	C437.657776,144.003098 434.371643,141.832077 430.853455,139.408966 
	C426.352173,137.482727 422.082947,135.808563 416.955139,133.797699 
	C424.434662,127.251801 428.747070,119.303085 428.733063,109.798492 
	C428.718658,100.020889 424.688965,91.803970 416.925995,85.588783 
	C405.281097,76.265648 388.455994,77.014961 377.251831,87.385742 
	C364.402618,99.279213 364.844055,113.726036 378.892303,134.189041 
	C368.775909,137.556244 358.703339,140.952759 351.793884,150.125412 
	C351.171234,150.920883 350.794586,151.574265 350.308350,152.268784 
	C350.198761,152.309921 350.240479,152.540298 349.986877,152.758087 
	C349.095978,154.452164 348.458649,155.928482 347.609375,157.508759 
	C347.397430,157.612717 347.305481,158.081207 347.305481,158.081207 
	C347.305481,158.081207 347.750336,158.257462 347.430481,158.373657 
	C347.147919,159.099060 347.185242,159.708252 347.049438,160.244629 
	C346.876343,160.171799 346.721741,160.514084 346.516479,160.607605 
	C346.187561,161.437881 346.063965,162.174637 345.940369,162.911407 
z"/>
<path fill="#FCCA0C" opacity="1.000000" stroke="none" 
	d="
M358.067749,179.177002 
	C358.067749,179.177002 357.728882,178.901550 357.387024,178.627747 
	C356.740845,178.195023 356.436554,178.036102 356.132233,177.877167 
	C356.132233,177.877167 356.126801,177.844086 356.001099,177.566345 
	C355.235260,176.867615 354.595154,176.446625 353.955048,176.025635 
	C353.955048,176.025635 353.989044,176.004303 353.908081,175.771637 
	C353.532562,175.380646 353.237976,175.222336 352.943420,175.064041 
	C352.714935,174.806107 352.486450,174.548187 351.961609,173.917679 
	C351.124878,173.105118 350.584503,172.665131 350.044098,172.225159 
	C349.838318,171.914703 349.632538,171.604248 349.255005,170.682846 
	C350.748596,164.362106 352.413940,158.652328 354.318207,152.831757 
	C354.975769,152.158066 355.394409,151.595154 356.051270,150.876709 
	C356.734375,150.125015 357.179291,149.528885 357.730988,148.932373 
	C357.837769,148.931976 357.947083,148.748489 358.219513,148.687195 
	C358.993744,148.100357 359.495544,147.574814 360.221802,146.960556 
	C360.735779,146.700378 360.938019,146.456543 361.368469,146.064819 
	C362.545441,145.373077 363.407013,144.756836 364.475342,144.097168 
	C364.682098,144.053757 365.025726,143.807922 365.260223,143.786865 
	C365.792603,143.621094 365.999146,143.393494 366.079102,143.066757 
	C366.043823,143.050507 366.065979,143.124908 366.342590,143.092560 
	C367.074585,142.780823 367.530029,142.501434 368.070801,142.238785 
	C368.156158,142.255508 368.234436,142.100143 368.567444,142.066620 
	C370.124542,141.433273 371.348663,140.833481 372.716339,140.238098 
	C372.859924,140.242493 373.073425,140.050278 373.429749,140.041443 
	C375.340149,139.435883 376.894165,138.839142 378.650940,138.238617 
	C378.853668,138.234802 379.194702,138.015335 379.564484,138.053482 
	C383.314453,138.403671 386.689209,138.874771 390.076111,138.990936 
	C395.311981,139.170547 400.560822,139.258286 405.795227,139.096375 
	C409.508789,138.981476 413.207611,138.390533 417.135193,138.213196 
	C417.929382,138.549652 418.501404,138.685013 419.400513,138.971680 
	C421.822205,139.779633 423.916870,140.436264 426.112640,141.157104 
	C426.213776,141.221298 426.398712,141.068954 426.587830,141.338745 
	C427.184052,141.749420 427.591217,141.890320 427.997314,142.010803 
	C427.996307,141.990372 427.965393,142.017273 428.193481,142.270615 
	C429.861908,143.195877 431.302277,143.867783 432.901001,144.703644 
	C433.310760,145.049057 433.589508,145.164703 434.035767,145.461548 
	C434.681305,145.959641 435.186615,146.210724 435.666107,146.351013 
	C435.640289,146.240219 435.646332,146.467667 435.835907,146.713501 
	C437.637115,148.346878 439.248749,149.734406 440.968964,151.378372 
	C441.357605,151.873535 441.637665,152.112259 441.972839,152.577240 
	C442.192902,153.102661 442.444824,153.275253 442.781250,153.251907 
	C442.778809,153.182541 442.640900,153.198441 442.703857,153.488861 
	C443.136169,154.222702 443.505493,154.666153 443.887939,155.110138 
	C443.901093,155.110672 443.885132,155.134445 443.948669,155.500977 
	C444.971039,161.217575 445.929871,166.567642 446.888672,171.917709 
	C446.888672,171.917709 446.990234,171.989975 446.663513,172.074249 
	C445.506897,173.066696 444.677002,173.974838 443.847137,174.882996 
	C443.847137,174.882996 443.915344,174.913696 443.657043,174.960388 
	C443.220490,175.323044 443.042297,175.639038 442.864075,175.955017 
	C442.864075,175.955017 442.945312,175.924698 442.628693,175.935455 
	C441.742188,176.486252 441.172302,177.026291 440.602417,177.566315 
	C440.602417,177.566315 440.629700,177.842087 440.276703,177.810242 
	C426.706604,187.749512 411.871552,193.311203 395.293518,191.791763 
	C386.495728,190.985413 377.896759,188.009659 369.208038,186.013199 
	C369.208038,186.013199 369.059021,185.825516 368.812439,185.603424 
	C368.096771,185.255615 367.627747,185.129898 367.158691,185.004196 
	C367.158691,185.004196 366.879669,184.797775 366.526245,184.545410 
	C365.799011,184.162354 365.425232,184.031662 365.051453,183.900970 
	C365.051453,183.900970 365.030731,183.991714 364.893188,183.690048 
	C363.847931,182.915146 362.940277,182.441925 362.032593,181.968689 
	C362.032593,181.968689 362.001221,182.000000 361.849213,181.734207 
	C361.154236,181.238266 360.611237,181.008102 360.068268,180.777954 
	C360.068268,180.777954 360.062805,180.911545 360.026550,180.655304 
	C359.670837,180.234512 359.351379,180.069992 359.031921,179.905457 
	C359.031921,179.905457 359.030518,179.973770 358.961426,179.755554 
	C358.688202,179.255264 358.413330,179.135162 358.067749,179.177002 
z"/>
<path fill="#665728" opacity="1.000000" stroke="none" 
	d="
M369.243011,186.345642 
	C377.896759,188.009659 386.495728,190.985413 395.293518,191.791763 
	C411.871552,193.311203 426.706604,187.749512 440.244202,177.675507 
	C439.645813,178.981949 439.023132,180.779678 437.762573,181.741058 
	C423.724579,192.447662 407.616302,195.380646 390.495697,193.483093 
	C384.812469,192.853210 379.228271,191.126144 373.680878,189.601990 
	C372.067261,189.158646 370.737732,187.681396 369.243011,186.345642 
z"/>
<path fill="#665728" opacity="1.000000" stroke="none" 
	d="
M447.242310,171.816589 
	C445.929871,166.567642 444.971039,161.217575 444.280945,155.542908 
	C445.751801,155.793472 446.953949,156.368637 448.156128,156.943817 
	C448.156128,156.943817 448.034973,156.959656 448.149170,157.139038 
	C448.493927,157.592346 448.724518,157.866302 448.955078,158.140228 
	C448.955109,158.140228 449.154175,158.312714 448.965973,158.818939 
	C448.844147,161.562271 448.910522,163.799408 448.976929,166.036530 
	C448.516602,167.929520 448.056305,169.822495 447.242310,171.816589 
z"/>
<path fill="#685820" opacity="1.000000" stroke="none" 
	d="
M354.079285,152.942535 
	C352.413940,158.652328 350.748596,164.362106 349.051453,170.489883 
	C348.676056,168.563141 348.332489,166.218414 348.177673,163.176270 
	C347.818176,161.823914 347.269958,161.169006 346.721741,160.514099 
	C346.721741,160.514084 346.876343,160.171799 347.209106,159.736511 
	C347.611359,158.953308 347.680847,158.605392 347.750336,158.257462 
	C347.750336,158.257462 347.305481,158.081207 347.305481,158.081207 
	C347.305481,158.081207 347.397430,157.612717 347.918335,157.264221 
	C349.039673,155.457230 349.640076,153.998764 350.240479,152.540298 
	C350.240479,152.540298 350.198761,152.309921 350.745148,152.439270 
	C352.220795,152.693268 353.150024,152.817902 354.079285,152.942535 
z"/>
<path fill="#504C46" opacity="1.000000" stroke="none" 
	d="
M449.213928,165.830139 
	C448.910522,163.799408 448.844147,161.562271 448.920898,158.942688 
	C449.752014,160.434128 450.440002,162.308029 451.155640,164.557861 
	C450.605835,165.163757 450.028381,165.393753 449.213928,165.830139 
z"/>
<path fill="#5A5032" opacity="1.000000" stroke="none" 
	d="
M346.516479,160.607605 
	C347.269958,161.169006 347.818176,161.823914 348.190460,162.751175 
	C347.553345,162.999405 347.092133,162.975296 346.285645,162.931290 
	C346.063965,162.174637 346.187561,161.437881 346.516479,160.607605 
z"/>
<path fill="#665728" opacity="1.000000" stroke="none" 
	d="
M444.215912,174.905243 
	C444.677002,173.974838 445.506897,173.066696 446.619873,172.029694 
	C446.130249,172.909714 445.357452,173.918594 444.215912,174.905243 
z"/>
<path fill="#665728" opacity="1.000000" stroke="none" 
	d="
M362.025513,182.313599 
	C362.940277,182.441925 363.847931,182.915146 364.918884,183.651215 
	C364.332581,183.961426 363.583008,184.008789 362.459991,184.047455 
	C362.063873,183.578674 362.041138,183.118607 362.025513,182.313599 
z"/>
<path fill="#665728" opacity="1.000000" stroke="none" 
	d="
M440.939331,177.601959 
	C441.172302,177.026291 441.742188,176.486252 442.612091,175.895416 
	C442.366821,176.442276 441.821533,177.039948 440.939331,177.601959 
z"/>
<path fill="#685820" opacity="1.000000" stroke="none" 
	d="
M354.020691,176.336273 
	C354.595154,176.446625 355.235260,176.867615 355.993744,177.551270 
	C355.436859,177.424927 354.761597,177.035904 354.020691,176.336273 
z"/>
<path fill="#685820" opacity="1.000000" stroke="none" 
	d="
M350.081757,172.500092 
	C350.584503,172.665131 351.124878,173.105118 351.724548,173.809204 
	C351.229004,173.640549 350.674225,173.207794 350.081757,172.500092 
z"/>
<path fill="#665728" opacity="1.000000" stroke="none" 
	d="
M367.306244,185.204300 
	C367.627747,185.129898 368.096771,185.255615 368.693665,185.587631 
	C368.365570,185.664108 367.909698,185.534256 367.306244,185.204300 
z"/>
<path fill="#665728" opacity="1.000000" stroke="none" 
	d="
M443.105469,175.837250 
	C443.042297,175.639038 443.220490,175.323044 443.670349,174.925430 
	C443.743622,175.135681 443.545227,175.427567 443.105469,175.837250 
z"/>
<path fill="#685820" opacity="1.000000" stroke="none" 
	d="
M353.043365,175.292084 
	C353.237976,175.222336 353.532562,175.380646 353.897766,175.788345 
	C353.621735,175.979416 353.346710,175.806885 353.043365,175.292084 
z"/>
<path fill="#665728" opacity="1.000000" stroke="none" 
	d="
M356.073486,178.158478 
	C356.436554,178.036102 356.740845,178.195023 357.173584,178.581665 
	C357.082245,178.849457 356.862518,178.889526 356.310028,178.971436 
	C355.989746,178.822128 356.002258,178.630966 356.073486,178.158478 
z"/>
<path fill="#665728" opacity="1.000000" stroke="none" 
	d="
M365.238708,184.134491 
	C365.425232,184.031662 365.799011,184.162354 366.352966,184.535919 
	C366.164062,184.641876 365.794983,184.504944 365.238708,184.134491 
z"/>
<path fill="#FDFDFD" opacity="1.000000" stroke="none" 
	d="
M177.854568,138.536484 
	C176.394913,141.841644 174.935272,145.146820 173.514389,148.364197 
	C156.569183,129.032425 152.953278,90.275558 177.165131,63.687393 
	C202.803986,35.532169 245.138504,33.769249 273.198578,59.733360 
	C300.525269,85.018883 299.367310,126.260933 280.832367,148.413834 
	C279.048004,144.317337 277.294403,140.291504 275.233704,135.862762 
	C274.821228,135.165909 274.613678,134.998062 274.201355,134.651260 
	C273.380554,133.577545 272.662415,132.808868 271.864807,131.756058 
	C271.179810,130.998978 270.574280,130.526031 269.804504,129.756775 
	C262.076385,125.186852 254.512497,120.913239 246.918350,116.622536 
	C247.159409,116.336990 247.884338,115.478271 248.857529,114.435074 
	C249.817657,113.254692 250.529541,112.258781 251.482239,111.159256 
	C251.857529,110.742203 251.992020,110.428749 252.405060,109.908974 
	C262.756042,94.140015 255.862045,75.356377 245.006516,68.989510 
	C245.001923,69.002693 245.027084,68.989334 244.877518,68.677887 
	C237.113235,63.096745 228.830475,61.478714 219.529221,63.852493 
	C218.854706,64.013832 218.476059,64.133347 217.735840,64.258492 
	C204.109619,69.747353 196.833084,79.667282 196.857239,92.423920 
	C196.854523,93.486275 196.967072,94.202019 197.008255,95.341286 
	C198.931747,100.886948 200.926590,106.009071 202.933929,111.103073 
	C202.946442,111.074936 202.888016,111.095627 202.973938,111.422440 
	C204.641403,113.592690 206.222961,115.436134 207.693375,117.150040 
	C201.657074,120.060318 195.729263,122.918289 189.467773,125.855370 
	C185.627121,129.597092 182.120163,133.259705 178.411896,137.050354 
	C178.091904,137.631104 177.973236,138.083786 177.854568,138.536484 
z"/>
<path fill="#615530" opacity="1.000000" stroke="none" 
	d="
M274.304016,134.956314 
	C274.613678,134.998062 274.821228,135.165909 274.933228,135.666321 
	C275.273560,137.557755 275.652802,139.235199 275.931976,140.929123 
	C276.625610,145.138321 278.727295,149.825455 277.556152,153.444550 
	C276.221588,157.568573 272.560333,161.623260 268.856323,164.182816 
	C249.022766,177.888260 227.524841,182.306931 204.172668,174.259949 
	C202.161774,173.567001 199.973083,173.390060 197.460815,172.971466 
	C194.051575,170.260208 191.048477,167.550934 188.025635,164.412674 
	C188.005905,163.983688 188.202408,163.759705 188.539581,163.852615 
	C216.358353,182.366241 249.275116,178.103409 271.208160,159.477295 
	C276.036469,155.376938 276.792297,151.040436 275.302216,145.412918 
	C272.780304,135.888779 265.668243,130.672363 257.858246,125.813721 
	C257.950928,125.374344 257.979065,125.196777 258.371887,125.035126 
	C262.480621,126.718391 266.224670,128.385727 269.968750,130.053070 
	C270.574280,130.526031 271.179810,130.998978 271.900269,132.105560 
	C272.778107,133.478226 273.541077,134.217270 274.304016,134.956314 
z"/>
<path fill="#615530" opacity="1.000000" stroke="none" 
	d="
M177.880203,138.945496 
	C177.973236,138.083786 178.091904,137.631104 178.784607,137.014542 
	C180.955002,136.292389 182.551331,135.734085 184.037125,135.499786 
	C175.669724,147.719666 175.972061,152.819061 185.319885,161.701477 
	C185.186600,161.831009 184.922638,162.092728 184.922638,162.092728 
	C182.190811,160.434769 179.459000,158.776810 176.397537,157.039154 
	C176.680542,151.091141 177.293182,145.222839 177.880203,138.945496 
z"/>
<path fill="#FDFDFD" opacity="1.000000" stroke="none" 
	d="
M454.071747,325.677032 
	C449.311646,321.150146 444.551514,316.623260 439.242767,311.755249 
	C437.036652,310.657501 435.376068,309.907562 433.722382,309.142761 
	C430.692993,307.741821 427.667633,306.332153 424.640594,304.926117 
	C424.640594,304.926117 424.991180,304.755127 425.346008,304.426575 
	C426.484833,303.076630 427.268829,302.055206 428.052826,301.033783 
	C428.052826,301.033783 428.004120,301.001678 428.273285,300.966827 
	C428.698456,300.623230 428.854492,300.314453 429.010498,300.005707 
	C429.010498,300.005707 429.000000,300.000000 429.291229,299.867065 
	C430.099579,298.826416 430.616699,297.918671 431.133850,297.010925 
	C439.093872,284.628510 436.523254,267.823822 425.224426,258.379852 
	C413.064026,248.215744 396.159546,248.442535 384.787048,258.922302 
	C371.470184,271.193848 371.806793,285.832214 386.178070,306.140808 
	C370.217041,310.431335 357.040894,317.955200 352.449371,335.578979 
	C351.601624,335.698669 350.418213,335.735779 350.088684,335.223541 
	C335.960602,313.263214 333.429077,290.061646 345.404083,266.725311 
	C357.490967,243.170944 377.409393,230.874207 404.284668,229.759460 
	C438.125946,228.355774 472.940765,256.467743 472.590271,297.774048 
	C472.471710,311.742432 467.766296,325.518280 459.040588,337.203857 
	C457.868164,334.028534 456.810638,331.164459 455.457062,328.100159 
	C455.161011,327.899994 455.114777,327.962769 455.118713,327.643219 
	C454.772369,326.774780 454.422058,326.225891 454.071747,325.677032 
z"/>
<path fill="#FCC90B" opacity="1.000000" stroke="none" 
	d="
M391.882782,309.185913 
	C400.491516,312.480042 408.731781,312.986938 417.051636,309.583893 
	C417.792938,309.280670 418.720703,309.071350 419.479034,309.225647 
	C431.804718,311.733124 443.445801,315.783844 450.457764,327.117767 
	C452.705200,330.750458 453.415466,335.472198 454.182495,339.809998 
	C454.461884,341.390198 453.295166,343.724884 452.053955,345.001373 
	C427.714111,370.033447 383.890442,370.272858 359.220825,345.389404 
	C357.432709,343.585785 356.309479,340.082489 356.531006,337.511902 
	C357.371643,327.755371 363.125732,320.727997 371.464600,316.446716 
	C377.728973,313.230499 384.778961,311.544434 391.882782,309.185913 
z"/>
<path fill="#FCCA0C" opacity="1.000000" stroke="none" 
	d="
M418.969543,303.015778 
	C418.809906,303.246368 418.643463,303.471985 417.900391,303.854675 
	C409.866760,305.067902 402.412933,307.897705 394.922211,304.142273 
	C393.554871,303.995697 391.942535,304.269012 390.858582,303.636688 
	C381.509094,298.182434 376.793182,285.556213 379.758850,274.378143 
	C382.663300,263.430573 392.811798,255.677658 403.662506,254.888489 
	C423.307922,253.459686 438.309662,274.111115 429.157379,292.931671 
	C428.326324,294.640564 426.771301,295.997437 425.082581,297.887787 
	C424.424561,298.541840 424.236420,298.825867 424.048279,299.109863 
	C424.048248,299.109863 424.078339,299.047241 423.755615,299.105865 
	C421.945129,300.448242 420.457336,301.732025 418.969543,303.015778 
z"/>
<path fill="#EBC321" opacity="1.000000" stroke="none" 
	d="
M394.965698,304.518707 
	C402.412933,307.897705 409.866760,305.067902 417.761108,304.012238 
	C411.788483,309.084686 399.584625,309.551819 394.965698,304.518707 
z"/>
<path fill="#57544E" opacity="1.000000" stroke="none" 
	d="
M424.314453,304.974243 
	C427.667633,306.332153 430.692993,307.741821 433.722382,309.142761 
	C435.376068,309.907562 437.036652,310.657501 438.892029,311.710876 
	C433.878876,310.574585 428.664124,309.153839 423.489471,307.599548 
	C423.405304,307.574280 423.811127,305.917725 424.314453,304.974243 
z"/>
<path fill="#EBC321" opacity="1.000000" stroke="none" 
	d="
M419.332214,303.040466 
	C420.457336,301.732025 421.945129,300.448242 423.780884,299.129730 
	C422.650848,300.418365 421.172882,301.741730 419.332214,303.040466 
z"/>
<path fill="#57544E" opacity="1.000000" stroke="none" 
	d="
M427.702942,301.092407 
	C427.268829,302.055206 426.484833,303.076630 425.404022,304.240356 
	C425.855835,303.305481 426.604462,302.228271 427.702942,301.092407 
z"/>
<path fill="#57544E" opacity="1.000000" stroke="none" 
	d="
M430.805878,297.104919 
	C430.616699,297.918671 430.099579,298.826416 429.295959,299.871155 
	C429.498932,299.071716 429.988403,298.135315 430.805878,297.104919 
z"/>
<path fill="#515151" opacity="1.000000" stroke="none" 
	d="
M454.110413,326.008575 
	C454.422058,326.225891 454.772369,326.774780 455.151245,327.664734 
	C454.836243,327.450562 454.492676,326.895355 454.110413,326.008575 
z"/>
<path fill="#EBC321" opacity="1.000000" stroke="none" 
	d="
M424.315002,299.015991 
	C424.236420,298.825867 424.424561,298.541840 424.809692,298.091125 
	C424.865021,298.256989 424.723358,298.589569 424.315002,299.015991 
z"/>
<path fill="#57544E" opacity="1.000000" stroke="none" 
	d="
M428.806671,300.142395 
	C428.854492,300.314453 428.698456,300.623230 428.278992,300.995422 
	C428.153015,300.755066 428.348785,300.495148 428.806671,300.142395 
z"/>
<path fill="#615530" opacity="1.000000" stroke="none" 
	d="
M187.907684,164.095688 
	C187.317657,163.952332 186.825867,163.696960 186.290161,163.074585 
	C186.246246,162.707565 186.562820,162.351318 186.815765,162.467377 
	C187.446625,162.975525 187.824509,163.367615 188.202408,163.759705 
	C188.202408,163.759705 188.005905,163.983688 187.907684,164.095688 
z"/>
<path fill="#615530" opacity="1.000000" stroke="none" 
	d="
M186.086288,162.884171 
	C185.669540,162.882706 185.435440,162.678589 185.073349,162.270584 
	C184.922638,162.092728 185.186600,161.831009 185.537567,161.779907 
	C186.168167,161.876892 186.392929,162.084396 186.562820,162.351318 
	C186.562820,162.351318 186.246246,162.707565 186.086288,162.884171 
z"/>
<path fill="#665728" opacity="1.000000" stroke="none" 
	d="
M360.246307,181.019714 
	C360.611237,181.008102 361.154236,181.238266 361.863159,181.717468 
	C361.494202,181.731491 360.959259,181.496475 360.246307,181.019714 
z"/>
<path fill="#665728" opacity="1.000000" stroke="none" 
	d="
M358.208313,179.344788 
	C358.413330,179.135162 358.688202,179.255264 358.994995,179.749329 
	C358.815094,179.866776 358.565491,179.717194 358.208313,179.344788 
z"/>
<path fill="#665728" opacity="1.000000" stroke="none" 
	d="
M359.183533,180.118134 
	C359.351379,180.069992 359.670837,180.234512 360.093384,180.655945 
	C359.909393,180.718842 359.622253,180.524811 359.183533,180.118134 
z"/>
<path fill="#5E5640" opacity="1.000000" stroke="none" 
	d="
M426.398712,141.068939 
	C426.398712,141.068954 426.213776,141.221298 425.899902,140.893860 
	C423.415192,139.984406 421.244293,139.402390 419.073425,138.820374 
	C418.501404,138.685013 417.929382,138.549652 416.903900,137.965378 
	C414.651978,136.072678 412.853485,134.628876 411.174377,133.080292 
	C411.293732,132.975525 411.607605,132.926498 411.878723,132.831360 
	C412.434082,132.486664 412.718384,132.237106 413.002075,131.996887 
	C413.001434,132.006226 412.983948,131.998245 413.285553,131.927734 
	C414.018127,131.440536 414.449127,131.023834 415.062836,130.365768 
	C416.671356,128.710297 418.097168,127.296204 419.808258,125.731239 
	C420.379456,125.025841 420.665344,124.471306 420.965485,123.946701 
	C420.979736,123.976624 420.913452,123.977249 421.124756,123.822235 
	C421.511627,123.367668 421.687164,123.068115 421.826965,122.837448 
	C421.791229,122.906319 421.656250,122.829712 422.008423,122.699173 
	C422.850769,120.993073 423.340942,119.417511 423.842407,117.880753 
	C423.853729,117.919556 423.774567,117.935799 424.086853,117.702339 
	C424.517578,113.320892 424.635986,109.172913 424.569458,104.724350 
	C420.503174,89.821114 410.163849,81.931641 395.504944,83.166367 
	C384.995056,84.051636 377.459869,89.913582 373.614624,99.673248 
	C369.889801,109.127182 370.798065,118.234131 377.926453,126.082306 
	C377.988251,126.012154 377.847107,126.134209 377.916504,126.418709 
	C378.703094,127.618736 379.420288,128.534271 380.236603,129.792542 
	C381.259613,130.701889 382.183563,131.268509 383.393860,131.910309 
	C384.143097,132.339020 384.605927,132.692551 385.083923,133.348038 
	C383.130951,135.105103 381.162842,136.560226 379.194702,138.015335 
	C379.194702,138.015335 378.853668,138.234802 378.255737,138.173584 
	C376.129700,138.758347 374.601562,139.404327 373.073425,140.050293 
	C373.073425,140.050278 372.859924,140.242493 372.332092,140.184570 
	C370.614319,140.784485 369.424377,141.442322 368.234436,142.100143 
	C368.234436,142.100143 368.156158,142.255508 367.793335,142.234894 
	C366.975647,142.517822 366.520813,142.821350 366.065979,143.124908 
	C366.065979,143.124908 366.043823,143.050507 365.866089,143.135193 
	C365.411499,143.352844 365.190643,143.548859 365.025726,143.807922 
	C365.025726,143.807922 364.682098,144.053757 364.112335,144.064209 
	C362.712708,144.763214 361.882874,145.451767 361.053009,146.140320 
	C360.938019,146.456543 360.735779,146.700378 359.934509,146.999344 
	C358.930847,147.667389 358.438965,148.207932 357.947083,148.748474 
	C357.947083,148.748489 357.837769,148.931976 357.417114,148.970078 
	C356.223663,149.687302 355.450867,150.366409 354.400330,150.979874 
	C353.428375,150.603928 352.734161,150.293625 352.039917,149.983337 
	C358.703339,140.952759 368.775909,137.556244 378.892303,134.189041 
	C364.844055,113.726036 364.402618,99.279213 377.251831,87.385742 
	C388.455994,77.014961 405.281097,76.265648 416.925995,85.588783 
	C424.688965,91.803970 428.718658,100.020889 428.733063,109.798492 
	C428.747070,119.303085 424.434662,127.251801 416.955139,133.797699 
	C422.082947,135.808563 426.352173,137.482727 430.837341,139.798874 
	C431.030579,140.960052 431.007874,141.479233 430.607849,141.992188 
	C429.475494,141.996399 428.720428,142.006836 427.965393,142.017273 
	C427.965393,142.017273 427.996307,141.990372 427.773499,141.787079 
	C427.166718,141.412170 426.782715,141.240555 426.398712,141.068939 
z"/>
<path fill="#504C46" opacity="1.000000" stroke="none" 
	d="
M430.985168,141.998428 
	C431.007874,141.479233 431.030579,140.960052 431.069397,140.050964 
	C434.371643,141.832077 437.657776,144.003098 440.962799,146.595673 
	C440.981720,147.017212 440.757141,147.238022 440.398804,147.162369 
	C438.575745,146.880356 437.111053,146.674011 435.646332,146.467667 
	C435.646332,146.467667 435.640289,146.240219 435.559570,146.063080 
	C434.951080,145.662125 434.423309,145.438324 433.895569,145.214523 
	C433.589508,145.164703 433.310760,145.049057 432.856689,144.383362 
	C432.097778,143.265549 431.541473,142.631989 430.985168,141.998428 
z"/>
<path fill="#504C46" opacity="1.000000" stroke="none" 
	d="
M448.122314,156.576965 
	C446.953949,156.368637 445.751801,155.793472 444.217377,155.176376 
	C443.885132,155.134445 443.901093,155.110672 443.866486,154.804260 
	C443.434875,154.064728 443.037903,153.631592 442.640900,153.198441 
	C442.640900,153.198441 442.778809,153.182541 442.708130,153.029160 
	C442.478394,152.589676 442.238495,152.414734 441.917694,152.350983 
	C441.637665,152.112259 441.357605,151.873535 441.022736,150.990448 
	C440.897675,149.310059 440.827423,148.274033 440.757141,147.238022 
	C440.757141,147.238022 440.981720,147.017212 441.093933,146.906738 
	C443.500244,149.934204 445.794373,153.072159 448.122314,156.576965 
z"/>
<path fill="#515050" opacity="1.000000" stroke="none" 
	d="
M351.793884,150.125412 
	C352.734161,150.293625 353.428375,150.603928 354.686218,151.002701 
	C355.437561,151.071548 355.625305,151.051895 355.813049,151.032257 
	C355.394409,151.595154 354.975769,152.158066 354.318207,152.831757 
	C353.150024,152.817902 352.220795,152.693268 350.854736,152.398132 
	C350.794586,151.574265 351.171234,150.920883 351.793884,150.125412 
z"/>
<path fill="#515050" opacity="1.000000" stroke="none" 
	d="
M349.986877,152.758087 
	C349.640076,153.998764 349.039673,155.457230 348.130310,157.160248 
	C348.458649,155.928482 349.095978,154.452164 349.986877,152.758087 
z"/>
<path fill="#504C46" opacity="1.000000" stroke="none" 
	d="
M448.956421,157.836349 
	C448.724518,157.866302 448.493927,157.592346 448.142273,157.078323 
	C448.333405,157.069641 448.645569,157.301056 448.956421,157.836349 
z"/>
<path fill="#5A5032" opacity="1.000000" stroke="none" 
	d="
M347.430481,158.373657 
	C347.680847,158.605392 347.611359,158.953308 347.382202,159.809341 
	C347.185242,159.708252 347.147919,159.099060 347.430481,158.373657 
z"/>
<path fill="#685820" opacity="1.000000" stroke="none" 
	d="
M411.054993,133.185089 
	C412.853485,134.628876 414.651978,136.072678 416.681732,137.764282 
	C413.207611,138.390533 409.508789,138.981476 405.795227,139.096375 
	C400.560822,139.258286 395.311981,139.170547 390.076111,138.990936 
	C386.689209,138.874771 383.314453,138.403671 379.564484,138.053482 
	C381.162842,136.560226 383.130951,135.105103 385.443481,133.420624 
	C394.211243,137.166656 402.633545,136.943466 411.054993,133.185089 
z"/>
<path fill="#685820" opacity="1.000000" stroke="none" 
	d="
M440.398804,147.162369 
	C440.827423,148.274033 440.897675,149.310059 440.914154,150.734009 
	C439.248749,149.734406 437.637115,148.346878 435.835907,146.713501 
	C437.111053,146.674011 438.575745,146.880356 440.398804,147.162369 
z"/>
<path fill="#685820" opacity="1.000000" stroke="none" 
	d="
M419.400513,138.971695 
	C421.244293,139.402390 423.415192,139.984406 425.798767,140.829651 
	C423.916870,140.436264 421.822205,139.779633 419.400513,138.971695 
z"/>
<path fill="#685820" opacity="1.000000" stroke="none" 
	d="
M430.607849,141.992188 
	C431.541473,142.631989 432.097778,143.265549 432.698364,144.219421 
	C431.302277,143.867783 429.861908,143.195877 428.193481,142.270615 
	C428.720428,142.006836 429.475494,141.996399 430.607849,141.992188 
z"/>
<path fill="#685820" opacity="1.000000" stroke="none" 
	d="
M373.429749,140.041443 
	C374.601562,139.404327 376.129700,138.758347 378.052979,138.177399 
	C376.894165,138.839142 375.340149,139.435883 373.429749,140.041443 
z"/>
<path fill="#685820" opacity="1.000000" stroke="none" 
	d="
M368.567444,142.066620 
	C369.424377,141.442322 370.614319,140.784485 372.188507,140.180176 
	C371.348663,140.833481 370.124542,141.433273 368.567444,142.066620 
z"/>
<path fill="#685820" opacity="1.000000" stroke="none" 
	d="
M361.368469,146.064819 
	C361.882874,145.451767 362.712708,144.763214 363.905579,144.107635 
	C363.407013,144.756836 362.545441,145.373077 361.368469,146.064819 
z"/>
<path fill="#685820" opacity="1.000000" stroke="none" 
	d="
M356.051270,150.876694 
	C355.625305,151.051895 355.437561,151.071548 354.963928,151.068359 
	C355.450867,150.366409 356.223663,149.687302 357.310333,148.970459 
	C357.179291,149.528885 356.734375,150.125015 356.051270,150.876694 
z"/>
<path fill="#685820" opacity="1.000000" stroke="none" 
	d="
M358.219482,148.687195 
	C358.438965,148.207932 358.930847,147.667389 359.710022,147.088074 
	C359.495544,147.574814 358.993744,148.100357 358.219482,148.687195 
z"/>
<path fill="#665728" opacity="1.000000" stroke="none" 
	d="
M442.703857,153.488861 
	C443.037903,153.631592 443.434875,154.064728 443.853333,154.803741 
	C443.505493,154.666153 443.136169,154.222702 442.703857,153.488861 
z"/>
<path fill="#685820" opacity="1.000000" stroke="none" 
	d="
M366.342590,143.092560 
	C366.520813,142.821350 366.975647,142.517822 367.707977,142.218170 
	C367.530029,142.501434 367.074585,142.780823 366.342590,143.092560 
z"/>
<path fill="#685820" opacity="1.000000" stroke="none" 
	d="
M434.035767,145.461548 
	C434.423309,145.438324 434.951080,145.662125 435.585388,146.173859 
	C435.186615,146.210724 434.681305,145.959641 434.035767,145.461548 
z"/>
<path fill="#685820" opacity="1.000000" stroke="none" 
	d="
M426.587830,141.338730 
	C426.782715,141.240555 427.166718,141.412170 427.774536,141.807495 
	C427.591217,141.890320 427.184052,141.749420 426.587830,141.338730 
z"/>
<path fill="#665728" opacity="1.000000" stroke="none" 
	d="
M441.972839,152.577240 
	C442.238495,152.414734 442.478394,152.589676 442.710571,153.098526 
	C442.444824,153.275253 442.192902,153.102661 441.972839,152.577240 
z"/>
<path fill="#685820" opacity="1.000000" stroke="none" 
	d="
M365.260223,143.786865 
	C365.190643,143.548859 365.411499,143.352844 365.901337,143.151443 
	C365.999146,143.393494 365.792603,143.621094 365.260223,143.786865 
z"/>
<path fill="#57544E" opacity="1.000000" stroke="none" 
	d="
M245.011108,68.976326 
	C255.862045,75.356377 262.756042,94.140015 252.302399,109.829918 
	C251.921188,109.957184 251.710526,109.806282 251.703766,109.477753 
	C251.429947,108.063416 251.162872,106.977623 250.918060,105.944321 
	C250.940292,105.996819 250.865738,105.910446 251.153580,105.956795 
	C251.635788,106.003410 251.830154,106.003670 252.205490,105.873672 
	C252.610916,105.544281 252.793793,105.312370 252.954697,105.016937 
	C252.974304,104.986214 253.015503,104.926056 253.115753,104.827148 
	C253.344070,104.448837 253.299271,104.192169 253.062775,103.595543 
	C252.931488,102.762085 252.819061,102.291306 252.745148,101.841003 
	C252.783661,101.861488 252.736832,101.935089 253.028625,101.673470 
	C253.896042,97.277985 254.471695,93.144127 255.180511,88.808273 
	C254.916153,88.036049 254.518631,87.465820 254.042664,86.611610 
	C253.578461,85.903542 253.192703,85.479454 252.846466,85.063568 
	C252.885986,85.071770 252.864487,85.149574 252.885986,84.847137 
	C252.614594,84.046074 252.321671,83.547432 251.934082,82.911102 
	C251.839401,82.773407 251.814407,82.440125 251.887604,82.037132 
	C251.968826,81.089134 251.976852,80.544121 251.967163,79.804092 
	C251.606140,79.344879 251.262833,79.080696 250.653961,78.870972 
	C250.215073,78.976662 250.041763,79.027901 249.667557,78.908073 
	C249.265411,78.255859 249.064148,77.774696 248.851807,76.965446 
	C248.418732,76.181717 247.996719,75.726074 247.642883,75.280441 
	C247.711029,75.290436 247.675705,75.423584 247.596954,75.127068 
	C247.004868,74.562599 246.491547,74.294655 245.756378,73.913071 
	C245.258652,73.591164 245.071518,73.321358 244.991425,72.588821 
	C245.010193,71.117210 245.010651,70.046768 245.011108,68.976326 
z"/>
<path fill="#57544E" opacity="1.000000" stroke="none" 
	d="
M189.801468,125.776276 
	C195.729263,122.918289 201.657074,120.060318 207.693375,117.150040 
	C206.222961,115.436134 204.641403,113.592690 203.329681,111.467865 
	C205.392456,111.799889 207.185394,112.413300 208.987289,113.016525 
	C208.996246,113.006340 208.975052,113.021942 209.055237,113.329613 
	C209.806961,114.056274 210.478500,114.475266 211.122070,114.869431 
	C211.094131,114.844604 211.146606,114.791351 211.171875,115.133804 
	C212.188187,116.644547 213.179230,117.812836 214.539505,119.416412 
	C212.817276,119.668068 211.497299,119.612396 210.385498,120.066483 
	C205.601166,122.020485 200.877960,124.124146 196.075943,126.139648 
	C196.019394,126.105988 196.147339,126.136696 195.833954,126.129211 
	C195.018570,126.456886 194.516586,126.792046 194.009003,127.093369 
	C194.003403,127.059532 194.071991,127.061317 193.856415,126.997742 
	C193.640839,126.934166 193.201233,126.840553 193.027161,126.696182 
	C192.604538,126.379105 192.335876,126.247383 191.729248,126.136856 
	C190.988174,126.131172 190.564941,126.145302 190.056595,126.063690 
	C189.971481,125.967941 189.801468,125.776276 189.801468,125.776276 
z"/>
<path fill="#615530" opacity="1.000000" stroke="none" 
	d="
M245.006516,68.989510 
	C245.010651,70.046768 245.010193,71.117210 244.668198,72.475876 
	C237.566391,67.411835 229.821899,65.346138 221.531387,67.375626 
	C217.172302,68.442696 213.206879,71.117973 209.100067,72.721725 
	C210.446884,71.022530 211.689056,69.592865 213.085770,68.334793 
	C214.684677,66.894608 216.420883,65.606842 218.097427,64.252853 
	C218.476059,64.133347 218.854706,64.013832 219.874573,64.101654 
	C228.686218,65.869102 236.856659,67.429222 245.027084,68.989334 
	C245.027084,68.989334 245.001923,69.002693 245.006516,68.989510 
z"/>
<path fill="#615530" opacity="1.000000" stroke="none" 
	d="
M208.978333,113.026711 
	C207.185394,112.413300 205.392456,111.799889 203.243774,111.141052 
	C202.888016,111.095627 202.946442,111.074936 202.934799,110.708015 
	C201.820969,106.123886 200.831436,101.871681 199.539902,97.713287 
	C199.203796,96.631119 197.925278,95.841652 197.079605,94.917755 
	C196.967072,94.202019 196.854523,93.486275 197.190903,92.277802 
	C198.435867,89.689789 199.267517,87.607201 200.020004,85.496399 
	C201.305817,81.889511 201.448975,77.540695 206.072937,76.552231 
	C204.325134,80.795212 202.041061,84.570374 201.162033,88.648407 
	C199.126984,98.089584 202.702026,106.072403 208.978333,113.026711 
z"/>
<path fill="#57544E" opacity="1.000000" stroke="none" 
	d="
M269.804504,129.756775 
	C266.224670,128.385727 262.480621,126.718391 258.030701,125.128281 
	C257.112579,125.308006 256.900269,125.410500 256.711975,125.421951 
	C256.735992,125.330910 256.638672,125.492134 256.619202,125.205360 
	C256.402039,124.599571 256.204376,124.280556 255.891479,123.660019 
	C254.869888,122.906075 253.963562,122.453651 252.743179,121.808136 
	C250.960815,121.390656 249.492477,121.166275 247.872711,120.776299 
	C247.503372,120.402336 247.258499,120.232994 246.563431,120.081573 
	C244.445755,120.014832 242.751297,119.969193 241.039734,119.603287 
	C241.006363,118.855019 240.990082,118.427010 241.122742,117.718109 
	C241.460831,116.837799 241.650009,116.238388 241.958420,115.458130 
	C242.295746,115.070686 242.554047,114.950607 243.168594,114.889191 
	C243.911087,114.430801 244.337570,114.000267 244.729080,113.606819 
	C244.694122,113.643898 244.629822,113.564819 245.014267,113.666969 
	C245.926559,113.800468 246.454391,113.831818 247.230255,113.900826 
	C247.645004,113.951813 247.811722,113.965134 248.135391,114.139473 
	C248.292358,114.300484 248.609283,114.619553 248.609283,114.619553 
	C247.884338,115.478271 247.159409,116.336990 246.918350,116.622536 
	C254.512497,120.913239 262.076385,125.186852 269.804504,129.756775 
z"/>
<path fill="#57544E" opacity="1.000000" stroke="none" 
	d="
M206.174911,76.222000 
	C201.448975,77.540695 201.305817,81.889511 200.020004,85.496399 
	C199.267517,87.607201 198.435867,89.689789 197.306183,91.931183 
	C196.833084,79.667282 204.109619,69.747353 217.735840,64.258484 
	C216.420883,65.606842 214.684677,66.894608 213.085770,68.334793 
	C211.689056,69.592865 210.446884,71.022530 209.086609,72.710114 
	C209.036758,73.043839 209.056229,73.046303 208.690887,73.052834 
	C207.611511,74.102425 206.897491,75.145493 206.166626,76.192184 
	C206.149765,76.195816 206.174911,76.222000 206.174911,76.222000 
z"/>
<path fill="#57544E" opacity="1.000000" stroke="none" 
	d="
M244.877518,68.677887 
	C236.856659,67.429222 228.686218,65.869102 220.170441,64.059830 
	C228.830475,61.478714 237.113235,63.096745 244.877518,68.677887 
z"/>
<path fill="#57544E" opacity="1.000000" stroke="none" 
	d="
M197.008255,95.341286 
	C197.925278,95.841652 199.203796,96.631119 199.539902,97.713287 
	C200.831436,101.871681 201.820969,106.123886 202.922302,110.736145 
	C200.926590,106.009071 198.931747,100.886948 197.008255,95.341286 
z"/>
<path fill="#57544E" opacity="1.000000" stroke="none" 
	d="
M184.147675,135.175797 
	C182.551331,135.734085 180.955002,136.292389 178.985931,136.886505 
	C182.120163,133.259705 185.627121,129.597092 189.467773,125.855377 
	C189.801468,125.776276 189.971481,125.967941 189.936707,126.378960 
	C189.304932,128.252594 188.707947,129.715195 188.095596,131.140167 
	C188.080231,131.102539 188.159012,131.122650 187.776459,131.094086 
	C186.308441,132.428543 185.222977,133.791550 184.125137,135.158386 
	C184.112762,135.162231 184.147675,135.175797 184.147675,135.175797 
z"/>
<path fill="#57544E" opacity="1.000000" stroke="none" 
	d="
M251.241440,111.262863 
	C250.529541,112.258781 249.817657,113.254692 248.857529,114.435074 
	C248.609283,114.619553 248.292358,114.300484 248.115967,113.893585 
	C247.939560,113.486694 247.859528,112.999283 247.855438,112.611099 
	C247.780762,111.709656 247.710175,111.196396 247.731644,110.676483 
	C247.823700,110.669830 247.641174,110.641914 248.033630,110.729935 
	C249.220139,110.787422 250.014206,110.756874 250.914032,110.862518 
	C251.019775,110.998695 251.241440,111.262871 251.241440,111.262863 
z"/>
<path fill="#57544E" opacity="1.000000" stroke="none" 
	d="
M274.201355,134.651260 
	C273.541077,134.217270 272.778107,133.478226 271.979706,132.389694 
	C272.662415,132.808868 273.380554,133.577545 274.201355,134.651260 
z"/>
<path fill="#57544E" opacity="1.000000" stroke="none" 
	d="
M252.023865,110.036240 
	C251.992020,110.428749 251.857529,110.742203 251.482239,111.159264 
	C251.241440,111.262871 251.019775,110.998695 251.072845,110.718109 
	C251.333206,110.238602 251.528076,110.028191 251.710526,109.806282 
	C251.710526,109.806282 251.921188,109.957184 252.023865,110.036240 
z"/>
<path fill="#FCC90B" opacity="1.000000" stroke="none" 
	d="
M186.815765,162.467377 
	C186.392929,162.084396 186.168167,161.876892 185.670853,161.650360 
	C175.972061,152.819061 175.669724,147.719666 184.037125,135.499786 
	C184.147675,135.175797 184.112762,135.162231 184.410706,135.014084 
	C185.858765,133.618179 187.008896,132.370422 188.159027,131.122650 
	C188.159012,131.122650 188.080231,131.102539 188.406815,131.078735 
	C189.902603,130.166824 191.071808,129.278717 192.440826,128.300049 
	C192.640640,128.209473 192.930161,127.879784 193.178329,127.834335 
	C193.641663,127.546356 193.856827,127.303833 194.071991,127.061310 
	C194.071991,127.061317 194.003403,127.059532 194.314880,127.072083 
	C195.133362,126.768661 195.640350,126.452682 196.147339,126.136703 
	C196.147339,126.136696 196.019394,126.105988 196.443069,126.094650 
	C197.793396,125.714684 198.721252,125.349091 199.646484,124.976913 
	C206.299179,122.300812 212.694275,120.143806 220.292496,122.642044 
	C224.735168,124.102768 230.365005,123.819237 234.938721,122.504425 
	C239.776794,121.113617 243.984253,121.319321 248.485962,122.767639 
	C250.217422,123.324699 252.003006,123.713585 253.789368,124.207260 
	C253.814789,124.235428 253.887192,124.212700 254.085144,124.454742 
	C255.068283,124.961899 255.853485,125.227020 256.638672,125.492134 
	C256.638672,125.492134 256.735992,125.330910 256.845520,125.597229 
	C257.208130,126.038918 257.487671,126.109581 257.793671,126.075539 
	C265.668243,130.672363 272.780304,135.888779 275.302216,145.412918 
	C276.792297,151.040436 276.036469,155.376938 271.208160,159.477295 
	C249.275116,178.103409 216.358353,182.366241 188.539581,163.852615 
	C187.824509,163.367615 187.446625,162.975525 186.815765,162.467377 
z"/>
<path fill="#67581C" opacity="1.000000" stroke="none" 
	d="
M257.858246,125.813721 
	C257.487671,126.109581 257.208130,126.038918 256.821503,125.688271 
	C256.900269,125.410500 257.112579,125.308006 257.666016,125.112358 
	C257.979065,125.196777 257.950928,125.374344 257.858246,125.813721 
z"/>
<path fill="#F3C71C" opacity="1.000000" stroke="none" 
	d="
M411.174377,133.080307 
	C402.633545,136.943466 394.211243,137.166656 385.428345,133.118668 
	C384.605927,132.692551 384.143097,132.339020 383.236206,131.634384 
	C381.907288,130.672119 381.022400,130.060959 380.137512,129.449799 
	C379.420288,128.534271 378.703094,127.618736 378.289490,126.391281 
	C379.380157,126.299805 380.455872,126.265129 380.910461,126.779419 
	C386.652557,133.275803 394.288330,134.151123 401.935577,132.787170 
	C406.753998,131.927765 411.848694,129.748215 415.590027,126.667702 
	C418.357941,124.388718 422.537262,120.800613 419.424530,115.585457 
	C419.191376,115.194855 420.081604,114.188469 420.349640,113.432892 
	C420.936096,111.779701 421.867645,110.121407 421.940582,108.434181 
	C422.435944,96.976303 411.690521,86.447395 400.238892,85.856133 
	C387.815613,85.214714 379.175568,88.717346 375.040314,104.133125 
	C373.974396,108.106812 375.216827,112.775719 375.760773,117.079521 
	C376.148041,120.143524 377.141632,123.130898 377.864655,126.152466 
	C370.798065,118.234131 369.889801,109.127182 373.614624,99.673248 
	C377.459869,89.913582 384.995056,84.051636 395.504944,83.166367 
	C410.163849,81.931641 420.503174,89.821114 424.577026,105.167984 
	C424.437897,109.920074 424.106232,113.927940 423.774597,117.935799 
	C423.774567,117.935799 423.853729,117.919556 423.599731,118.121986 
	C422.782593,119.826180 422.219421,121.327950 421.656250,122.829712 
	C421.656250,122.829712 421.791229,122.906319 421.572021,122.946274 
	C421.206360,123.316566 421.059906,123.646912 420.913452,123.977249 
	C420.913452,123.977249 420.979736,123.976624 420.715698,124.129669 
	C420.142090,124.815842 419.832520,125.348969 419.522980,125.882103 
	C418.097168,127.296204 416.671356,128.710297 414.786652,130.481323 
	C413.879822,131.224930 413.431885,131.611588 412.983948,131.998245 
	C412.983948,131.998245 413.001434,132.006226 412.717987,132.064819 
	C412.158875,132.391098 411.883240,132.658798 411.607605,132.926483 
	C411.607605,132.926498 411.293732,132.975525 411.174377,133.080307 
z"/>
<path fill="#685820" opacity="1.000000" stroke="none" 
	d="
M424.086853,117.702339 
	C424.106232,113.927940 424.437897,109.920074 424.761993,105.468567 
	C424.635986,109.172913 424.517578,113.320892 424.086853,117.702339 
z"/>
<path fill="#685820" opacity="1.000000" stroke="none" 
	d="
M422.008423,122.699173 
	C422.219421,121.327950 422.782593,119.826180 423.588440,118.083191 
	C423.340942,119.417511 422.850769,120.993073 422.008423,122.699173 
z"/>
<path fill="#685820" opacity="1.000000" stroke="none" 
	d="
M380.236603,129.792542 
	C381.022400,130.060959 381.907288,130.672119 382.949829,131.559204 
	C382.183563,131.268509 381.259613,130.701889 380.236603,129.792542 
z"/>
<path fill="#685820" opacity="1.000000" stroke="none" 
	d="
M413.285553,131.927734 
	C413.431885,131.611588 413.879822,131.224930 414.603943,130.722717 
	C414.449127,131.023834 414.018127,131.440536 413.285553,131.927734 
z"/>
<path fill="#685820" opacity="1.000000" stroke="none" 
	d="
M419.808258,125.731232 
	C419.832520,125.348969 420.142090,124.815842 420.701416,124.099747 
	C420.665344,124.471306 420.379456,125.025841 419.808258,125.731232 
z"/>
<path fill="#685820" opacity="1.000000" stroke="none" 
	d="
M421.124756,123.822235 
	C421.059906,123.646912 421.206360,123.316566 421.607788,122.877396 
	C421.687164,123.068115 421.511627,123.367668 421.124756,123.822235 
z"/>
<path fill="#685820" opacity="1.000000" stroke="none" 
	d="
M411.878723,132.831345 
	C411.883240,132.658798 412.158875,132.391098 412.718628,132.055481 
	C412.718384,132.237106 412.434082,132.486664 411.878723,132.831345 
z"/>
<path fill="#FBCA0D" opacity="1.000000" stroke="none" 
	d="
M242.852585,114.917038 
	C242.554047,114.950607 242.295746,115.070686 241.644257,115.556931 
	C240.095093,116.517418 238.979309,117.198235 237.853775,117.868210 
	C237.844040,117.857368 237.815125,117.845161 237.421295,117.879333 
	C227.857895,121.370796 219.313538,119.645325 211.146606,114.791351 
	C211.146606,114.791351 211.094131,114.844604 211.002258,114.596771 
	C210.265274,113.906609 209.620163,113.464279 208.975052,113.021942 
	C208.975052,113.021942 208.996246,113.006340 208.987289,113.016525 
	C202.702026,106.072403 199.126984,98.089584 201.162033,88.648407 
	C202.041061,84.570374 204.325134,80.795212 206.072937,76.552231 
	C206.174911,76.222000 206.149765,76.195816 206.450653,76.067505 
	C207.519791,74.974892 208.288010,74.010597 209.056229,73.046303 
	C209.056229,73.046303 209.036758,73.043839 209.050232,73.055450 
	C213.206879,71.117973 217.172302,68.442696 221.531387,67.375626 
	C229.821899,65.346138 237.566391,67.411835 244.649902,72.877045 
	C245.071518,73.321358 245.258652,73.591164 245.852570,74.194786 
	C246.672302,74.867958 247.173996,75.145775 247.675705,75.423584 
	C247.675705,75.423584 247.711029,75.290436 247.660294,75.599960 
	C248.027328,76.370834 248.445114,76.832184 248.862885,77.293541 
	C249.064148,77.774696 249.265411,78.255859 249.706039,79.158913 
	C250.174316,79.817787 250.403214,80.054764 250.635834,80.312805 
	C250.639572,80.333862 250.663498,80.369324 250.729492,80.667053 
	C251.135132,81.456566 251.474762,81.948349 251.814407,82.440125 
	C251.814407,82.440125 251.839401,82.773407 251.927368,83.207825 
	C252.298386,84.144684 252.581436,84.647133 252.864487,85.149574 
	C252.864487,85.149574 252.885986,85.071770 252.850647,85.488556 
	C252.789139,91.248589 252.762985,96.591835 252.736847,101.935089 
	C252.736832,101.935089 252.783661,101.861488 252.500397,102.054001 
	C251.766663,103.467819 251.316208,104.689133 250.865753,105.910446 
	C250.865738,105.910446 250.940292,105.996819 250.640381,106.118538 
	C249.440720,107.707474 248.540939,109.174698 247.641174,110.641914 
	C247.641174,110.641914 247.823700,110.669830 247.452911,110.798080 
	C246.264694,111.805832 245.447250,112.685318 244.629822,113.564819 
	C244.629822,113.564819 244.694122,113.643898 244.428207,113.672745 
	C243.725723,114.106735 243.289154,114.511887 242.852585,114.917038 
z"/>
<path fill="#685820" opacity="1.000000" stroke="none" 
	d="
M253.028625,101.673470 
	C252.762985,96.591835 252.789139,91.248589 252.811127,85.480354 
	C253.192703,85.479454 253.578461,85.903542 254.066589,86.910461 
	C254.461777,87.998947 254.754547,88.504601 255.047333,89.010262 
	C254.471695,93.144127 253.896042,97.277985 253.028625,101.673470 
z"/>
<path fill="#685820" opacity="1.000000" stroke="none" 
	d="
M248.033630,110.729935 
	C248.540939,109.174698 249.440720,107.707474 250.618149,106.066040 
	C251.162872,106.977623 251.429947,108.063416 251.703766,109.477753 
	C251.528076,110.028191 251.333206,110.238602 250.967102,110.581932 
	C250.014206,110.756874 249.220139,110.787422 248.033630,110.729935 
z"/>
<path fill="#685820" opacity="1.000000" stroke="none" 
	d="
M251.153595,105.956795 
	C251.316208,104.689133 251.766663,103.467819 252.461884,102.033516 
	C252.819061,102.291306 252.931488,102.762085 253.038086,103.837021 
	C253.032242,104.441185 253.015503,104.926056 253.015503,104.926056 
	C253.015503,104.926056 252.974304,104.986214 252.778839,105.150925 
	C252.364014,105.518227 252.177734,105.747665 252.024521,106.003937 
	C251.830154,106.003670 251.635788,106.003410 251.153595,105.956795 
z"/>
<path fill="#615530" opacity="1.000000" stroke="none" 
	d="
M255.180511,88.808273 
	C254.754547,88.504601 254.461777,87.998947 254.145050,87.194443 
	C254.518631,87.465820 254.916153,88.036049 255.180511,88.808273 
z"/>
<path fill="#685820" opacity="1.000000" stroke="none" 
	d="
M248.851807,76.965446 
	C248.445114,76.832184 248.027328,76.370834 247.592133,75.589958 
	C247.996719,75.726074 248.418732,76.181717 248.851807,76.965446 
z"/>
<path fill="#615530" opacity="1.000000" stroke="none" 
	d="
M250.919525,78.816513 
	C251.262833,79.080696 251.606140,79.344879 251.633652,79.885078 
	C251.099731,80.230499 250.881622,80.299911 250.663498,80.369324 
	C250.663498,80.369324 250.639572,80.333862 250.730194,79.947754 
	C250.853714,79.313278 250.886612,79.064896 250.919525,78.816513 
z"/>
<path fill="#685820" opacity="1.000000" stroke="none" 
	d="
M252.885986,84.847137 
	C252.581436,84.647133 252.298386,84.144684 252.022049,83.345520 
	C252.321671,83.547432 252.614594,84.046074 252.885986,84.847137 
z"/>
<path fill="#685820" opacity="1.000000" stroke="none" 
	d="
M250.729492,80.667053 
	C250.881622,80.299911 251.099731,80.230499 251.651367,80.080101 
	C251.976852,80.544121 251.968826,81.089134 251.887604,82.037132 
	C251.474762,81.948349 251.135132,81.456566 250.729492,80.667053 
z"/>
<path fill="#685820" opacity="1.000000" stroke="none" 
	d="
M247.596954,75.127068 
	C247.173996,75.145775 246.672302,74.867958 246.074402,74.308426 
	C246.491547,74.294655 247.004868,74.562599 247.596954,75.127068 
z"/>
<path fill="#615530" opacity="1.000000" stroke="none" 
	d="
M253.115753,104.827148 
	C253.015503,104.926056 253.032242,104.441185 253.056931,104.199707 
	C253.299271,104.192169 253.344070,104.448837 253.115753,104.827148 
z"/>
<path fill="#615530" opacity="1.000000" stroke="none" 
	d="
M252.205490,105.873672 
	C252.177734,105.747665 252.364014,105.518227 252.759216,105.181648 
	C252.793793,105.312370 252.610916,105.544281 252.205490,105.873672 
z"/>
<path fill="#685820" opacity="1.000000" stroke="none" 
	d="
M250.653961,78.870972 
	C250.886612,79.064896 250.853714,79.313278 250.726471,79.926697 
	C250.403214,80.054764 250.174316,79.817787 249.906921,79.329971 
	C250.041763,79.027901 250.215073,78.976662 250.653961,78.870972 
z"/>
<path fill="#67581C" opacity="1.000000" stroke="none" 
	d="
M211.171875,115.133804 
	C219.313538,119.645325 227.857895,121.370796 237.570892,118.197021 
	C239.095154,118.961533 240.076004,119.442535 241.056839,119.923546 
	C242.751297,119.969193 244.445755,120.014832 246.711182,120.249756 
	C247.500183,120.649879 247.747528,120.817505 248.024155,120.941895 
	C249.492477,121.166275 250.960815,121.390656 252.846832,122.076393 
	C253.431000,123.084862 253.597458,123.631981 253.763931,124.179100 
	C252.003006,123.713585 250.217422,123.324699 248.485962,122.767639 
	C243.984253,121.319321 239.776794,121.113617 234.938721,122.504425 
	C230.365005,123.819237 224.735168,124.102768 220.292496,122.642044 
	C212.694275,120.143806 206.299179,122.300812 199.646484,124.976913 
	C198.721252,125.349091 197.793396,125.714684 196.499619,126.128311 
	C200.877960,124.124146 205.601166,122.020485 210.385498,120.066483 
	C211.497299,119.612396 212.817276,119.668068 214.539505,119.416412 
	C213.179230,117.812836 212.188187,116.644547 211.171875,115.133804 
z"/>
<path fill="#615530" opacity="1.000000" stroke="none" 
	d="
M192.241013,128.390625 
	C191.071808,129.278717 189.902603,130.166824 188.422180,131.116364 
	C188.707947,129.715195 189.304932,128.252594 190.021820,126.474701 
	C190.564941,126.145302 190.988174,126.131172 191.745132,126.508934 
	C192.132904,127.397423 192.186966,127.894028 192.241013,128.390625 
z"/>
<path fill="#615530" opacity="1.000000" stroke="none" 
	d="
M209.055237,113.329613 
	C209.620163,113.464279 210.265274,113.906609 211.030212,114.621597 
	C210.478500,114.475266 209.806961,114.056274 209.055237,113.329613 
z"/>
<path fill="#67581C" opacity="1.000000" stroke="none" 
	d="
M192.440826,128.300049 
	C192.186966,127.894028 192.132904,127.397423 192.062988,126.528748 
	C192.335876,126.247383 192.604538,126.379105 192.957306,126.956558 
	C193.017700,127.534119 192.973923,127.706955 192.930161,127.879784 
	C192.930161,127.879784 192.640640,128.209473 192.440826,128.300049 
z"/>
<path fill="#67581C" opacity="1.000000" stroke="none" 
	d="
M195.833954,126.129211 
	C195.640350,126.452682 195.133362,126.768661 194.320496,127.105919 
	C194.516586,126.792046 195.018570,126.456886 195.833954,126.129211 
z"/>
<path fill="#615530" opacity="1.000000" stroke="none" 
	d="
M193.178329,127.834335 
	C192.973923,127.706955 193.017700,127.534119 193.131363,127.100922 
	C193.201233,126.840553 193.640839,126.934166 193.856415,126.997742 
	C193.856827,127.303833 193.641663,127.546356 193.178329,127.834335 
z"/>
<path fill="#685820" opacity="1.000000" stroke="none" 
	d="
M245.014252,113.666962 
	C245.447250,112.685318 246.264694,111.805832 247.360855,110.804733 
	C247.710175,111.196396 247.780762,111.709656 247.695282,112.739288 
	C247.333313,113.439590 247.147659,113.642097 246.982239,113.863167 
	C246.454391,113.831818 245.926559,113.800468 245.014252,113.666962 
z"/>
<path fill="#615530" opacity="1.000000" stroke="none" 
	d="
M241.039734,119.603287 
	C240.076004,119.442535 239.095154,118.961533 237.964722,118.162842 
	C237.815125,117.845161 237.844040,117.857368 238.242767,117.908356 
	C239.418945,117.972557 240.196381,117.985779 240.973816,117.999008 
	C240.990082,118.427010 241.006363,118.855019 241.039734,119.603287 
z"/>
<path fill="#67581C" opacity="1.000000" stroke="none" 
	d="
M241.122742,117.718109 
	C240.196381,117.985779 239.418945,117.972557 238.252502,117.919189 
	C238.979309,117.198235 240.095093,116.517418 241.525024,115.737793 
	C241.650009,116.238388 241.460831,116.837799 241.122742,117.718109 
z"/>
<path fill="#615530" opacity="1.000000" stroke="none" 
	d="
M253.789368,124.207260 
	C253.597458,123.631981 253.431000,123.084862 253.160873,122.269485 
	C253.963562,122.453651 254.869888,122.906075 255.536697,123.689339 
	C254.827179,124.084358 254.357178,124.148529 253.887192,124.212700 
	C253.887192,124.212700 253.814789,124.235428 253.789368,124.207260 
z"/>
<path fill="#67581C" opacity="1.000000" stroke="none" 
	d="
M254.085144,124.454742 
	C254.357178,124.148529 254.827179,124.084358 255.651947,123.990860 
	C256.204376,124.280556 256.402039,124.599571 256.619202,125.205360 
	C255.853485,125.227020 255.068283,124.961899 254.085144,124.454742 
z"/>
<path fill="#685820" opacity="1.000000" stroke="none" 
	d="
M243.168594,114.889191 
	C243.289154,114.511887 243.725723,114.106735 244.463165,113.635666 
	C244.337570,114.000267 243.911087,114.430801 243.168594,114.889191 
z"/>
<path fill="#615530" opacity="1.000000" stroke="none" 
	d="
M247.230255,113.900826 
	C247.147659,113.642097 247.333313,113.439590 247.699371,113.127472 
	C247.859528,112.999283 247.939560,113.486694 247.958984,113.732574 
	C247.811722,113.965134 247.645004,113.951813 247.230255,113.900826 
z"/>
<path fill="#615530" opacity="1.000000" stroke="none" 
	d="
M247.872711,120.776299 
	C247.747528,120.817505 247.500183,120.649879 247.134399,120.270851 
	C247.258499,120.232994 247.503372,120.402336 247.872711,120.776299 
z"/>
<path fill="#615530" opacity="1.000000" stroke="none" 
	d="
M208.690887,73.052834 
	C208.288010,74.010597 207.519791,74.974892 206.467514,76.063873 
	C206.897491,75.145493 207.611511,74.102425 208.690887,73.052834 
z"/>
<path fill="#615530" opacity="1.000000" stroke="none" 
	d="
M187.776459,131.094101 
	C187.008896,132.370422 185.858765,133.618179 184.423065,135.010254 
	C185.222977,133.791550 186.308441,132.428543 187.776459,131.094101 
z"/>
<path fill="#FECB06" opacity="1.000000" stroke="none" 
	d="
M377.926453,126.082306 
	C377.141632,123.130898 376.148041,120.143524 375.760773,117.079521 
	C375.216827,112.775719 373.974396,108.106812 375.040314,104.133125 
	C379.175568,88.717346 387.815613,85.214714 400.238892,85.856133 
	C411.690521,86.447395 422.435944,96.976303 421.940582,108.434181 
	C421.867645,110.121407 420.936096,111.779701 420.349640,113.432892 
	C420.081604,114.188469 419.191376,115.194855 419.424530,115.585457 
	C422.537262,120.800613 418.357941,124.388718 415.590027,126.667702 
	C411.848694,129.748215 406.753998,131.927765 401.935577,132.787170 
	C394.288330,134.151123 386.652557,133.275803 380.910461,126.779419 
	C380.455872,126.265129 379.380157,126.299805 378.220093,126.106781 
	C377.847107,126.134209 377.988251,126.012154 377.926453,126.082306 
z"/>
</svg>